<svg width="11" height="7" viewBox="0 0 6 7" fill="none" xmlns="http://www.w3.org/2000/svg">
<path d="M2.42148 2.94H2.73148C3.53815 2.94 3.94148 2.55667 3.94148 1.79C3.94148 0.996666 3.53815 0.6 2.73148 0.6H2.42148V2.94ZM2.42148 5.8H2.98148C3.38148 5.8 3.69815 5.69667 3.93148 5.49C4.16482 5.28333 4.28148 4.98333 4.28148 4.59C4.28148 4.03667 4.14482 3.65667 3.87148 3.45C3.59815 3.24333 3.22148 3.14 2.74148 3.14H2.42148V5.8ZM0.421484 6V5.8H0.921484V0.6H0.421484V0.4H2.94148C3.76815 0.4 4.37482 0.526667 4.76148 0.78C5.15482 1.03333 5.35148 1.38 5.35148 1.82C5.35148 2.17333 5.23482 2.46333 5.00148 2.69C4.77482 2.91 4.46815 3.02 4.08148 3.02V3.08C4.56148 3.08 4.96482 3.21 5.29148 3.47C5.61815 3.72333 5.78148 4.08667 5.78148 4.56C5.78148 5.03333 5.59148 5.39333 5.21148 5.64C4.83148 5.88 4.28815 6 3.58148 6H0.421484Z" fill="#0074FF"/>
</svg>
