<svg width="11" height="7" viewBox="0 0 6 7" fill="none" xmlns="http://www.w3.org/2000/svg">
<path d="M5.45215 2.63H5.25215C5.25215 2.09667 5.08215 1.60333 4.74215 1.15C4.40215 0.696666 3.91548 0.47 3.28215 0.47C2.92882 0.47 2.63548 0.676666 2.40215 1.09C2.17548 1.50333 2.06215 2.21 2.06215 3.21C2.06215 4.21 2.17548 4.91667 2.40215 5.33C2.63548 5.74333 2.99548 5.95 3.48215 5.95C3.97548 5.95 4.38882 5.79667 4.72215 5.49C5.06215 5.18333 5.27215 4.75 5.35215 4.19H5.55215C5.45882 4.85 5.22548 5.34333 4.85215 5.67C4.48548 5.99 4.04548 6.15 3.53215 6.15C2.53882 6.15 1.77548 5.91333 1.24215 5.44C0.715482 4.96 0.452148 4.21333 0.452148 3.2C0.452148 2.18 0.708815 1.43667 1.22215 0.97C1.74215 0.503333 2.42882 0.27 3.28215 0.27C3.74215 0.27 4.18882 0.393333 4.62215 0.64C4.76215 0.726667 4.87548 0.77 4.96215 0.77C5.05548 0.77 5.12882 0.73 5.18215 0.65C5.23548 0.563333 5.26215 0.48 5.26215 0.4H5.45215V2.63Z" fill="#FFCD00"/>
</svg>
