<svg width="11" height="7" viewBox="0 0 6 7" fill="none" xmlns="http://www.w3.org/2000/svg">
<path d="M1.01191 6H0.811914V3.67H1.01191C1.01191 4.29667 1.23525 4.83 1.68191 5.27C2.13525 5.71 2.68525 5.93 3.33191 5.93C3.59858 5.93 3.81191 5.85333 3.97191 5.7C4.13858 5.54 4.22191 5.33 4.22191 5.07C4.22191 4.77667 4.03191 4.52667 3.65191 4.32C3.44525 4.21333 3.08858 4.04667 2.58191 3.82C2.07525 3.58667 1.71858 3.39 1.51191 3.23C1.09858 2.91 0.915247 2.48667 0.961914 1.96C1.01525 1.43333 1.21525 1.02667 1.56191 0.74C1.90858 0.446666 2.29858 0.299999 2.73191 0.299999C3.17191 0.299999 3.56525 0.359999 3.91191 0.48C4.26525 0.593333 4.46525 0.65 4.51191 0.65C4.64525 0.65 4.71191 0.533333 4.71191 0.299999H4.91191V2.13H4.71191C4.71191 1.65 4.53525 1.26 4.18191 0.96C3.82858 0.653333 3.37525 0.5 2.82191 0.5C2.57525 0.5 2.38191 0.573333 2.24191 0.72C2.10191 0.86 2.03191 1.01667 2.03191 1.19C2.03191 1.36333 2.05525 1.49667 2.10191 1.59C2.14858 1.68333 2.22858 1.77 2.34191 1.85C2.46191 1.92333 2.56525 1.98333 2.65191 2.03C2.73858 2.07667 2.87525 2.14 3.06191 2.22C3.25525 2.3 3.38858 2.35667 3.46191 2.39C3.82858 2.55667 4.04525 2.65667 4.11191 2.69C4.17858 2.71667 4.27525 2.76333 4.40191 2.83C4.52858 2.89667 4.62191 2.95667 4.68191 3.01C4.74858 3.06333 4.83191 3.13 4.93191 3.21C5.03191 3.29 5.10525 3.37333 5.15191 3.46C5.19858 3.54 5.24525 3.63333 5.29191 3.74C5.38525 3.95333 5.41858 4.20333 5.39191 4.49C5.33858 5.03 5.13525 5.44333 4.78191 5.73C4.43525 6.01 3.96525 6.15 3.37191 6.15C2.83858 6.15 2.30858 6.01333 1.78191 5.74C1.60191 5.64667 1.46858 5.6 1.38191 5.6C1.13525 5.6 1.01191 5.73333 1.01191 6Z" fill="#FF7F0F"/>
</svg>
