<svg width="11" height="7" viewBox="0 0 11 7" fill="none" xmlns="http://www.w3.org/2000/svg">
<path d="M0.8 6H0.6V3.67H0.8C0.8 4.29667 1.02333 4.83 1.47 5.27C1.92333 5.71 2.47333 5.93 3.12 5.93C3.38667 5.93 3.6 5.85333 3.76 5.7C3.92667 5.54 4.01 5.33 4.01 5.07C4.01 4.77667 3.82 4.52667 3.44 4.32C3.23333 4.21333 2.87667 4.04667 2.37 3.82C1.86333 3.58667 1.50667 3.39 1.3 3.23C0.886667 2.91 0.703333 2.48667 0.75 1.96C0.803333 1.43333 1.00333 1.02667 1.35 0.74C1.69667 0.446666 2.08667 0.299999 2.52 0.299999C2.96 0.299999 3.35333 0.359999 3.7 0.48C4.05333 0.593333 4.25333 0.65 4.3 0.65C4.43333 0.65 4.5 0.533333 4.5 0.299999H4.7V2.13H4.5C4.5 1.65 4.32333 1.26 3.97 0.96C3.61667 0.653333 3.16333 0.5 2.61 0.5C2.36333 0.5 2.17 0.573333 2.03 0.72C1.89 0.86 1.82 1.01667 1.82 1.19C1.82 1.36333 1.84333 1.49667 1.89 1.59C1.93667 1.68333 2.01667 1.77 2.13 1.85C2.25 1.92333 2.35333 1.98333 2.44 2.03C2.52667 2.07667 2.66333 2.14 2.85 2.22C3.04333 2.3 3.17667 2.35667 3.25 2.39C3.61667 2.55667 3.83333 2.65667 3.9 2.69C3.96667 2.71667 4.06333 2.76333 4.19 2.83C4.31667 2.89667 4.41 2.95667 4.47 3.01C4.53667 3.06333 4.62 3.13 4.72 3.21C4.82 3.29 4.89333 3.37333 4.94 3.46C4.98667 3.54 5.03333 3.63333 5.08 3.74C5.17333 3.95333 5.20667 4.20333 5.18 4.49C5.12667 5.03 4.92333 5.44333 4.57 5.73C4.22333 6.01 3.75333 6.15 3.16 6.15C2.62667 6.15 2.09667 6.01333 1.57 5.74C1.39 5.64667 1.25667 5.6 1.17 5.6C0.923333 5.6 0.8 5.73333 0.8 6ZM6.37617 6H6.17617V3.67H6.37617C6.37617 4.29667 6.59951 4.83 7.04617 5.27C7.49951 5.71 8.04951 5.93 8.69617 5.93C8.96284 5.93 9.17617 5.85333 9.33617 5.7C9.50284 5.54 9.58617 5.33 9.58617 5.07C9.58617 4.77667 9.39617 4.52667 9.01617 4.32C8.80951 4.21333 8.45284 4.04667 7.94617 3.82C7.43951 3.58667 7.08284 3.39 6.87617 3.23C6.46284 2.91 6.27951 2.48667 6.32617 1.96C6.37951 1.43333 6.57951 1.02667 6.92617 0.74C7.27284 0.446666 7.66284 0.299999 8.09617 0.299999C8.53617 0.299999 8.92951 0.359999 9.27617 0.48C9.62951 0.593333 9.82951 0.65 9.87617 0.65C10.0095 0.65 10.0762 0.533333 10.0762 0.299999H10.2762V2.13H10.0762C10.0762 1.65 9.89951 1.26 9.54617 0.96C9.19284 0.653333 8.73951 0.5 8.18617 0.5C7.93951 0.5 7.74617 0.573333 7.60617 0.72C7.46617 0.86 7.39617 1.01667 7.39617 1.19C7.39617 1.36333 7.41951 1.49667 7.46617 1.59C7.51284 1.68333 7.59284 1.77 7.70617 1.85C7.82617 1.92333 7.92951 1.98333 8.01617 2.03C8.10284 2.07667 8.23951 2.14 8.42617 2.22C8.61951 2.3 8.75284 2.35667 8.82617 2.39C9.19284 2.55667 9.40951 2.65667 9.47617 2.69C9.54284 2.71667 9.63951 2.76333 9.76617 2.83C9.89284 2.89667 9.98617 2.95667 10.0462 3.01C10.1128 3.06333 10.1962 3.13 10.2962 3.21C10.3962 3.29 10.4695 3.37333 10.5162 3.46C10.5628 3.54 10.6095 3.63333 10.6562 3.74C10.7495 3.95333 10.7828 4.20333 10.7562 4.49C10.7028 5.03 10.4995 5.44333 10.1462 5.73C9.79951 6.01 9.32951 6.15 8.73617 6.15C8.20284 6.15 7.67284 6.01333 7.14617 5.74C6.96617 5.64667 6.83284 5.6 6.74617 5.6C6.49951 5.6 6.37617 5.73333 6.37617 6Z" fill="#FE3300"/>
</svg>
