<svg width="30" height="30" viewBox="0 0 30 30" fill="none" xmlns="http://www.w3.org/2000/svg">
<g clip-path="url(#clip0_12_1101)">
<g clip-path="url(#clip1_12_1101)">
<mask id="mask0_12_1101" style="mask-type:luminance" maskUnits="userSpaceOnUse" x="0" y="0" width="30" height="30">
<path d="M15 30C23.2843 30 30 23.2843 30 15C30 6.71573 23.2843 0 15 0C6.71573 0 0 6.71573 0 15C0 23.2843 6.71573 30 15 30Z" fill="white"/>
</mask>
<g mask="url(#mask0_12_1101)">
<path d="M0 0H30V30H0V0Z" fill="#6DA544"/>
<path d="M15 5.87109L27.3926 15L15 24.1289L2.60742 15L15 5.87109Z" fill="#FFDA44"/>
<path d="M10.2071 12.9492C9.91552 13.6198 9.77164 14.3451 9.78518 15.0762L19.2774 17.9942C19.6956 17.3968 19.9831 16.718 20.1211 16.002C17.7422 12.1758 13.1074 11.2969 10.2129 12.9551L10.2071 12.9492Z" fill="#EEEEEE"/>
<path d="M14.9824 9.78514C14.1255 9.78731 13.2822 10.0006 12.5273 10.4062C11.4884 10.9668 10.6703 11.8633 10.207 12.9492C11.9823 12.5722 13.8245 12.6554 15.5587 13.1907C17.2928 13.726 18.8613 14.6957 20.1152 16.0078C20.3482 14.8216 20.1618 13.5913 19.5879 12.5273C19.1403 11.6962 18.4755 11.0022 17.6644 10.5192C16.8533 10.0363 15.9264 9.78259 14.9824 9.78514ZM12.4219 14.6777C11.5278 14.6747 10.6385 14.8091 9.78516 15.0762C9.79502 15.9128 10.006 16.7347 10.4004 17.4726C10.7249 18.0761 11.1651 18.6097 11.696 19.0429C12.2268 19.4762 12.8378 19.8005 13.494 19.9975C14.1503 20.1945 14.8389 20.2602 15.5206 20.191C16.2023 20.1217 16.8636 19.9187 17.4668 19.5937C18.1829 19.2081 18.799 18.6603 19.2656 17.9941C18.4432 16.9673 17.4021 16.1368 16.2183 15.5631C15.0344 14.9894 13.7374 14.6869 12.4219 14.6777Z" fill="#0052B4"/>
</g>
</g>
</g>
<defs>
<clipPath id="clip0_12_1101">
<rect width="30" height="30" fill="white"/>
</clipPath>
<clipPath id="clip1_12_1101">
<rect width="30" height="30" fill="white"/>
</clipPath>
</defs>
</svg>
