<svg width="7" height="10" viewBox="0 0 7 10" fill="none" xmlns="http://www.w3.org/2000/svg">
<g id="Copy">
<path id="Vector" d="M6.125 1.16667H4.66667C4.66667 0.523177 4.14349 0 3.5 0C2.85651 0 2.33333 0.523177 2.33333 1.16667H0.875C0.391927 1.16667 0 1.55859 0 2.04167V8.45833C0 8.94141 0.391927 9.33333 0.875 9.33333H6.125C6.60807 9.33333 7 8.94141 7 8.45833V2.04167C7 1.55859 6.60807 1.16667 6.125 1.16667ZM1.75 7.72917C1.50755 7.72917 1.3125 7.53411 1.3125 7.29167C1.3125 7.04922 1.50755 6.85417 1.75 6.85417C1.99245 6.85417 2.1875 7.04922 2.1875 7.29167C2.1875 7.53411 1.99245 7.72917 1.75 7.72917ZM1.75 5.97917C1.50755 5.97917 1.3125 5.78411 1.3125 5.54167C1.3125 5.29922 1.50755 5.10417 1.75 5.10417C1.99245 5.10417 2.1875 5.29922 2.1875 5.54167C2.1875 5.78411 1.99245 5.97917 1.75 5.97917ZM1.75 4.22917C1.50755 4.22917 1.3125 4.03411 1.3125 3.79167C1.3125 3.54922 1.50755 3.35417 1.75 3.35417C1.99245 3.35417 2.1875 3.54922 2.1875 3.79167C2.1875 4.03411 1.99245 4.22917 1.75 4.22917ZM3.5 0.729167C3.74245 0.729167 3.9375 0.924219 3.9375 1.16667C3.9375 1.40911 3.74245 1.60417 3.5 1.60417C3.25755 1.60417 3.0625 1.40911 3.0625 1.16667C3.0625 0.924219 3.25755 0.729167 3.5 0.729167ZM5.83333 7.4375C5.83333 7.51771 5.76771 7.58333 5.6875 7.58333H3.0625C2.98229 7.58333 2.91667 7.51771 2.91667 7.4375V7.14583C2.91667 7.06562 2.98229 7 3.0625 7H5.6875C5.76771 7 5.83333 7.06562 5.83333 7.14583V7.4375ZM5.83333 5.6875C5.83333 5.76771 5.76771 5.83333 5.6875 5.83333H3.0625C2.98229 5.83333 2.91667 5.76771 2.91667 5.6875V5.39583C2.91667 5.31562 2.98229 5.25 3.0625 5.25H5.6875C5.76771 5.25 5.83333 5.31562 5.83333 5.39583V5.6875ZM5.83333 3.9375C5.83333 4.01771 5.76771 4.08333 5.6875 4.08333H3.0625C2.98229 4.08333 2.91667 4.01771 2.91667 3.9375V3.64583C2.91667 3.56562 2.98229 3.5 3.0625 3.5H5.6875C5.76771 3.5 5.83333 3.56562 5.83333 3.64583V3.9375Z" fill="#DC1867"/>
</g>
</svg>
