<svg width="30" height="30" viewBox="0 0 30 30" fill="none" xmlns="http://www.w3.org/2000/svg">
<g clip-path="url(#clip0_12_1116)">
<mask id="mask0_12_1116" style="mask-type:luminance" maskUnits="userSpaceOnUse" x="0" y="0" width="30" height="30">
<path d="M15 30C23.2843 30 30 23.2843 30 15C30 6.71573 23.2843 0 15 0C6.71573 0 0 6.71573 0 15C0 23.2843 6.71573 30 15 30Z" fill="white"/>
</mask>
<g mask="url(#mask0_12_1116)">
<path d="M15 0H30V3.75L28.125 5.625L30 7.5V11.25L28.125 13.125L30 15V18.75L28.125 20.625L30 22.5V26.25L15 28.125L0 26.25V22.5L1.875 20.625L0 18.75V15L15 0Z" fill="#EEEEEE"/>
<path d="M13.125 3.75H30V7.5H13.125V3.75ZM13.125 11.25H30V15H15L13.125 11.25ZM0 18.75H30V22.5H0V18.75ZM0 26.25H30V30H0V26.25Z" fill="#D80027"/>
<path d="M0 0H15V15H0V0Z" fill="#0052B4"/>
<path d="M10.957 14.2383L14.2969 11.8359H10.1953L13.5352 14.2383L12.2461 10.3125L10.957 14.2383ZM6.21094 14.2383L9.55078 11.8359H5.44922L8.78906 14.2383L7.5 10.3125L6.21094 14.2383ZM1.46484 14.2383L4.80469 11.8359H0.703125L4.04297 14.2383L2.75391 10.3125L1.46484 14.2383ZM10.957 9.49219L14.2969 7.08984H10.1953L13.5352 9.49219L12.2461 5.56641L10.957 9.49219ZM6.21094 9.49219L9.55078 7.08984H5.44922L8.78906 9.49219L7.5 5.56641L6.21094 9.49219ZM1.46484 9.49219L4.80469 7.08984H0.703125L4.04297 9.49219L2.75391 5.56641L1.46484 9.49219ZM10.957 4.6875L14.2969 2.28516H10.1953L13.5352 4.6875L12.2461 0.761719L10.957 4.6875ZM6.21094 4.6875L9.55078 2.28516H5.44922L8.78906 4.6875L7.5 0.761719L6.21094 4.6875ZM1.46484 4.6875L4.80469 2.28516H0.703125L4.04297 4.6875L2.75391 0.761719L1.46484 4.6875Z" fill="#EEEEEE"/>
</g>
</g>
<defs>
<clipPath id="clip0_12_1116">
<rect width="30" height="30" fill="white"/>
</clipPath>
</defs>
</svg>
