<svg width="48" height="41" viewBox="0 0 48 41" fill="none" xmlns="http://www.w3.org/2000/svg">
<path d="M46.8052 6.02222C46.8052 6.54051 46.5637 7.03757 46.134 7.40405C45.7042 7.77053 45.1213 7.97642 44.5135 7.97642H23.8885C23.2807 7.97642 22.6978 7.77053 22.2681 7.40405C21.8383 7.03757 21.5968 6.54051 21.5968 6.02222C21.5968 5.50394 21.8383 5.00688 22.2681 4.64039C22.6978 4.27391 23.2807 4.06802 23.8885 4.06802H44.5135C45.1213 4.06802 45.7042 4.27391 46.134 4.64039C46.5637 5.00688 46.8052 5.50394 46.8052 6.02222ZM44.5135 13.839H28.4718C27.864 13.839 27.2812 14.0449 26.8514 14.4114C26.4216 14.7779 26.1802 15.2749 26.1802 15.7932C26.1802 16.3115 26.4216 16.8086 26.8514 17.1751C27.2812 17.5415 27.864 17.7474 28.4718 17.7474H44.5135C45.1213 17.7474 45.7042 17.5415 46.134 17.1751C46.5637 16.8086 46.8052 16.3115 46.8052 15.7932C46.8052 15.2749 46.5637 14.7779 46.134 14.4114C45.7042 14.0449 45.1213 13.839 44.5135 13.839ZM44.5135 23.61H33.0552C32.4474 23.61 31.8645 23.8159 31.4347 24.1824C31.0049 24.5489 30.7635 25.0459 30.7635 25.5642C30.7635 26.0825 31.0049 26.5796 31.4347 26.9461C31.8645 27.3125 32.4474 27.5184 33.0552 27.5184H44.5135C45.1213 27.5184 45.7042 27.3125 46.134 26.9461C46.5637 26.5796 46.8052 26.0825 46.8052 25.5642C46.8052 25.0459 46.5637 24.5489 46.134 24.1824C45.7042 23.8159 45.1213 23.61 44.5135 23.61ZM44.5135 33.381H37.6385C37.0307 33.381 36.4478 33.5869 36.018 33.9534C35.5883 34.3199 35.3468 34.817 35.3468 35.3352C35.3468 35.8535 35.5883 36.3506 36.018 36.7171C36.4478 37.0836 37.0307 37.2894 37.6385 37.2894H44.5135C45.1213 37.2894 45.7042 37.0836 46.134 36.7171C46.5637 36.3506 46.8052 35.8535 46.8052 35.3352C46.8052 34.817 46.5637 34.3199 46.134 33.9534C45.7042 33.5869 45.1213 33.381 44.5135 33.381ZM10.1385 1.13672C9.53072 1.13672 8.94782 1.34261 8.51805 1.70909C8.08828 2.07557 7.84684 2.57263 7.84684 3.09092V33.5491L4.88371 31.0223C4.4515 30.6663 3.87262 30.4694 3.27175 30.4738C2.67089 30.4783 2.09611 30.6838 1.67121 31.0461C1.24632 31.4085 1.00531 31.8986 1.00009 32.411C0.994865 32.9234 1.22585 33.417 1.6433 33.7856L8.5183 39.6482C8.73117 39.8302 8.98406 39.9745 9.26248 40.0731C9.54089 40.1716 9.83936 40.2223 10.1408 40.2223C10.4422 40.2223 10.7407 40.1716 11.0191 40.0731C11.2975 39.9745 11.5504 39.8302 11.7633 39.6482L18.6383 33.7856C19.0557 33.417 19.2867 32.9234 19.2815 32.411C19.2763 31.8986 19.0353 31.4085 18.6104 31.0461C18.1855 30.6838 17.6107 30.4783 17.0098 30.4738C16.409 30.4694 15.8301 30.6663 15.3979 31.0223L12.4302 33.5491V3.09092C12.4302 2.57263 12.1887 2.07557 11.759 1.70909C11.3292 1.34261 10.7463 1.13672 10.1385 1.13672Z" fill="#5F5AA2" stroke="#3D4658"/>
</svg>
