<svg width="280" height="69" viewBox="0 0 280 69" fill="none" xmlns="http://www.w3.org/2000/svg">
<path d="M39.329 30.2932L80 28.4118L40.6349 26.5356L39.329 30.2932Z" fill="#DC1867"/>
<path d="M30.2555 30.5924L31.7412 26.3158L0 25.5336L40.4386 46.1628L21.977 30.864L30.2555 30.5924Z" fill="#DC1867"/>
<path d="M53.7325 39.7353L51.2402 31.1304L49.3992 31.1906L53.7325 39.7353Z" fill="white"/>
<path d="M34.6919 39.7818L42.4408 17.4699L46.4891 25.4522L49.6174 25.5294L42.2248 0.00952148L29.8104 35.7367L34.6919 39.7818Z" fill="white"/>
<path d="M29.4047 55.0024L33.2643 43.8914L27.9233 41.1664L18.2578 68.9831L43.9069 53.1886L70.9902 68.9831L43.7906 46.1628L29.4047 55.0024Z" fill="white"/>
<path d="M116.599 55H105.943L110.359 34.264L98.9832 55H92.4552L90.2952 33.544L85.6872 55H81.3672L87.8472 24.52H100.087L101.575 41.704L110.791 24.52H123.127L116.599 55ZM132.05 45.352C131.922 46.056 131.826 46.728 131.762 47.368C131.73 48.008 131.714 48.584 131.714 49.096C131.714 49.384 131.73 49.704 131.762 50.056C131.794 50.408 131.858 50.744 131.954 51.064C132.082 51.352 132.242 51.608 132.434 51.832C132.658 52.024 132.962 52.12 133.346 52.12C133.634 52.12 133.954 52.024 134.306 51.832C134.69 51.64 135.058 51.368 135.41 51.016C135.794 50.664 136.146 50.232 136.466 49.72C136.818 49.208 137.09 48.632 137.282 47.992H145.154L143.906 53.128C143.266 53.544 142.53 53.896 141.698 54.184C140.866 54.472 139.986 54.712 139.058 54.904C138.13 55.064 137.186 55.176 136.226 55.24C135.266 55.336 134.354 55.384 133.49 55.384C131.89 55.384 130.402 55.24 129.026 54.952C127.65 54.664 126.45 54.168 125.426 53.464C124.402 52.76 123.586 51.832 122.978 50.68C122.402 49.496 122.114 48.04 122.114 46.312C122.114 44.744 122.354 43.208 122.834 41.704C123.346 40.2 124.178 38.872 125.33 37.72C126.514 36.536 128.082 35.592 130.034 34.888C132.018 34.184 134.482 33.832 137.426 33.832C140.626 33.832 143.026 34.328 144.626 35.32C146.258 36.312 147.074 37.864 147.074 39.976C147.074 40.84 146.946 41.784 146.69 42.808C146.434 43.8 146.05 44.648 145.538 45.352H132.05ZM138.434 39.64C138.434 38.648 138.274 37.976 137.954 37.624C137.634 37.272 137.25 37.096 136.802 37.096C136.29 37.096 135.81 37.272 135.362 37.624C134.946 37.944 134.562 38.392 134.21 38.968C133.858 39.512 133.538 40.152 133.25 40.888C132.962 41.592 132.722 42.344 132.53 43.144H138.002C138.066 42.76 138.13 42.36 138.194 41.944C138.258 41.592 138.306 41.208 138.338 40.792C138.402 40.376 138.434 39.992 138.434 39.64ZM149.81 34.36C150.994 34.104 152.034 33.816 152.93 33.496C153.826 33.176 154.642 32.776 155.378 32.296C156.146 31.816 156.866 31.224 157.538 30.52C158.242 29.816 158.994 28.952 159.794 27.928H164.738L163.346 34.36H167.09L166.466 37.576H162.674L160.706 46.936C160.546 47.672 160.418 48.328 160.322 48.904C160.226 49.48 160.178 49.928 160.178 50.248C160.178 50.888 160.402 51.288 160.85 51.448C161.33 51.608 162.21 51.688 163.49 51.688L162.77 55C162.546 55.064 162.194 55.112 161.714 55.144C161.266 55.176 160.754 55.208 160.178 55.24C159.634 55.304 159.058 55.336 158.45 55.336C157.874 55.368 157.362 55.384 156.914 55.384C156.114 55.384 155.33 55.32 154.562 55.192C153.794 55.096 153.106 54.888 152.498 54.568C151.89 54.216 151.394 53.72 151.01 53.08C150.658 52.44 150.482 51.576 150.482 50.488C150.482 50.104 150.498 49.624 150.53 49.048C150.594 48.472 150.706 47.832 150.866 47.128L152.882 37.576H149.138L149.81 34.36ZM169.854 36.136C171.486 35.336 173.15 34.76 174.846 34.408C176.574 34.024 178.494 33.832 180.606 33.832C182.654 33.832 184.35 33.992 185.694 34.312C187.038 34.632 188.11 35.096 188.91 35.704C189.71 36.312 190.27 37.032 190.59 37.864C190.91 38.696 191.07 39.64 191.07 40.696C191.07 41.304 191.022 41.96 190.926 42.664C190.862 43.368 190.782 43.96 190.686 44.44L188.43 55H180.702L179.838 51.928H179.55C178.526 53.048 177.326 53.912 175.95 54.52C174.606 55.096 173.262 55.384 171.918 55.384C171.15 55.384 170.398 55.272 169.662 55.048C168.926 54.824 168.27 54.488 167.694 54.04C167.118 53.56 166.654 52.968 166.302 52.264C165.95 51.528 165.774 50.648 165.774 49.624C165.774 47.96 166.222 46.648 167.118 45.688C168.046 44.696 169.246 43.96 170.718 43.48C172.222 42.968 173.902 42.648 175.758 42.52C177.646 42.392 179.534 42.328 181.422 42.328C181.486 42.008 181.566 41.56 181.662 40.984C181.758 40.376 181.806 39.848 181.806 39.4C181.806 38.824 181.646 38.296 181.326 37.816C181.038 37.304 180.414 37.048 179.454 37.048C178.334 37.048 177.502 37.384 176.958 38.056C176.446 38.696 176.11 39.48 175.95 40.408H168.942L169.854 36.136ZM180.894 44.584H180.03C179.102 44.584 178.302 44.712 177.63 44.968C176.99 45.192 176.462 45.496 176.046 45.88C175.662 46.264 175.374 46.696 175.182 47.176C174.99 47.656 174.894 48.136 174.894 48.616C174.894 49.384 175.086 49.96 175.47 50.344C175.886 50.728 176.366 50.92 176.91 50.92C177.582 50.92 178.238 50.68 178.878 50.2C179.55 49.72 179.966 49.08 180.126 48.28L180.894 44.584Z" fill="#F5F5F5"/>
<path d="M222.552 31.768C222.552 33.656 222.024 35.4 220.968 37C219.912 38.6 218.168 39.816 215.736 40.648L221.304 55H210.6L206.376 41.704H205.848L203.016 55H192.648L199.128 24.52H211.752C213.224 24.52 214.616 24.616 215.928 24.808C217.24 24.968 218.376 25.32 219.336 25.864C220.328 26.376 221.112 27.112 221.688 28.072C222.264 29 222.552 30.232 222.552 31.768ZM208.728 38.632C209.56 38.632 210.264 38.36 210.84 37.816C211.448 37.24 211.928 36.552 212.28 35.752C212.664 34.952 212.936 34.104 213.096 33.208C213.256 32.28 213.336 31.48 213.336 30.808C213.336 29.976 213.192 29.272 212.904 28.696C212.616 28.088 211.992 27.784 211.032 27.784H208.872L206.472 38.632H208.728ZM226.479 36.136C228.111 35.336 229.775 34.76 231.471 34.408C233.199 34.024 235.119 33.832 237.231 33.832C239.279 33.832 240.975 33.992 242.319 34.312C243.663 34.632 244.735 35.096 245.535 35.704C246.335 36.312 246.895 37.032 247.215 37.864C247.535 38.696 247.695 39.64 247.695 40.696C247.695 41.304 247.647 41.96 247.551 42.664C247.487 43.368 247.407 43.96 247.311 44.44L245.055 55H237.327L236.463 51.928H236.175C235.151 53.048 233.951 53.912 232.575 54.52C231.231 55.096 229.887 55.384 228.543 55.384C227.775 55.384 227.023 55.272 226.287 55.048C225.551 54.824 224.895 54.488 224.319 54.04C223.743 53.56 223.279 52.968 222.927 52.264C222.575 51.528 222.399 50.648 222.399 49.624C222.399 47.96 222.847 46.648 223.743 45.688C224.671 44.696 225.871 43.96 227.343 43.48C228.847 42.968 230.527 42.648 232.383 42.52C234.271 42.392 236.159 42.328 238.047 42.328C238.111 42.008 238.191 41.56 238.287 40.984C238.383 40.376 238.431 39.848 238.431 39.4C238.431 38.824 238.271 38.296 237.951 37.816C237.663 37.304 237.039 37.048 236.079 37.048C234.959 37.048 234.127 37.384 233.583 38.056C233.071 38.696 232.735 39.48 232.575 40.408H225.567L226.479 36.136ZM237.519 44.584H236.655C235.727 44.584 234.927 44.712 234.255 44.968C233.615 45.192 233.087 45.496 232.671 45.88C232.287 46.264 231.999 46.696 231.807 47.176C231.615 47.656 231.519 48.136 231.519 48.616C231.519 49.384 231.711 49.96 232.095 50.344C232.511 50.728 232.991 50.92 233.535 50.92C234.207 50.92 234.863 50.68 235.503 50.2C236.175 49.72 236.591 49.08 236.751 48.28L237.519 44.584ZM258.772 55H249.028L253.396 34.36H263.236L258.772 55ZM264.484 28.072C264.484 28.808 264.324 29.448 264.004 29.992C263.716 30.536 263.316 31 262.804 31.384C262.324 31.768 261.764 32.056 261.124 32.248C260.484 32.44 259.828 32.536 259.156 32.536C257.876 32.536 256.804 32.232 255.94 31.624C255.076 31.016 254.644 30.056 254.644 28.744C254.644 28.04 254.788 27.416 255.076 26.872C255.364 26.296 255.748 25.832 256.228 25.48C256.74 25.096 257.316 24.808 257.956 24.616C258.628 24.424 259.316 24.328 260.02 24.328C261.268 24.328 262.324 24.632 263.188 25.24C264.052 25.848 264.484 26.792 264.484 28.072ZM272.882 55H263.09L269.906 22.744H279.746L272.882 55Z" fill="#DC1867"/>
</svg>
