<svg width="38" height="34" viewBox="0 0 38 34" fill="none" xmlns="http://www.w3.org/2000/svg">
<path d="M18.6813 14.9271L38 14L19.3016 13.0755L18.6813 14.9271Z" fill="#810E3C"/>
<path d="M14.3714 15.0745L15.0771 12.9672L0 12.5818L19.2083 22.7469L10.4391 15.2083L14.3714 15.0745Z" fill="#810E3C"/>
<path d="M25.5229 19.5797L24.3391 15.3396L23.4646 15.3693L25.5229 19.5797Z" fill="white"/>
<path d="M16.4787 19.6026L20.1594 8.60835L22.0823 12.5417L23.5682 12.5797L20.0568 0.00469971L14.1599 17.6094L16.4787 19.6026Z" fill="white"/>
<path d="M13.9672 27.1026L15.8005 21.6276L13.2636 20.2849L8.67242 33.9917L20.8558 26.2089L33.7203 33.9917L20.8005 22.7469L13.9672 27.1026Z" fill="white"/>
</svg>
