<svg width="77" height="38" viewBox="0 0 77 38" fill="none" xmlns="http://www.w3.org/2000/svg">
<path d="M28.1797 0.635132V12.0101H26.2188L21.1172 3.86169V12.0101H19.1562V0.635132H21.1172L26.2344 8.79919V0.635132H28.1797ZM32.5272 3.55701V12.0101H30.6444V3.55701H32.5272ZM30.66 2.43201L32.1834 0.0804443H34.3084L32.1834 2.43201H30.66ZM37.5856 10.5179L39.6559 3.55701H41.6091L38.6716 12.0101H37.4528L37.5856 10.5179ZM35.9997 3.55701L38.1091 10.5492L38.2106 12.0101H36.9919L34.0387 3.55701H35.9997ZM46.5503 12.1664C45.9253 12.1664 45.3602 12.0648 44.855 11.8617C44.355 11.6534 43.9279 11.3643 43.5737 10.9945C43.2248 10.6247 42.9566 10.1898 42.7691 9.68982C42.5816 9.18982 42.4878 8.65076 42.4878 8.07263V7.76013C42.4878 7.09867 42.5842 6.49972 42.7769 5.96326C42.9696 5.4268 43.2378 4.96847 43.5816 4.58826C43.9253 4.20284 44.3316 3.90857 44.8003 3.70544C45.2691 3.50232 45.7769 3.40076 46.3237 3.40076C46.9279 3.40076 47.4566 3.50232 47.9097 3.70544C48.3628 3.90857 48.7378 4.19503 49.0347 4.56482C49.3368 4.9294 49.5607 5.3643 49.7066 5.86951C49.8576 6.37472 49.9331 6.93201 49.9331 7.54138V8.34607H43.4019V6.99451H48.0737V6.84607C48.0633 6.50753 47.9956 6.18982 47.8706 5.89294C47.7508 5.59607 47.5659 5.35649 47.3159 5.17419C47.0659 4.9919 46.7326 4.90076 46.3159 4.90076C46.0034 4.90076 45.7248 4.96847 45.48 5.10388C45.2404 5.23409 45.0399 5.42419 44.8784 5.67419C44.717 5.92419 44.592 6.22628 44.5034 6.58044C44.4201 6.9294 44.3784 7.32263 44.3784 7.76013V8.07263C44.3784 8.44242 44.4279 8.78617 44.5269 9.10388C44.631 9.41638 44.7821 9.68982 44.98 9.92419C45.1779 10.1586 45.4175 10.3435 45.6987 10.4789C45.98 10.6091 46.3003 10.6742 46.6597 10.6742C47.1128 10.6742 47.5165 10.583 47.8706 10.4008C48.2248 10.2185 48.5321 9.96065 48.7925 9.62732L49.7847 10.5883C49.6024 10.8539 49.3654 11.1091 49.0737 11.3539C48.7821 11.5935 48.4253 11.7888 48.0034 11.9398C47.5868 12.0909 47.1024 12.1664 46.5503 12.1664ZM53.5775 0.0101318V12.0101H51.6869V0.0101318H53.5775Z" fill="white"/>
<path d="M5.42969 19.103V30.517H3.54688V21.3373L0.757812 22.2827V20.728L5.20312 19.103H5.42969Z" fill="white"/>
<path d="M66.4531 27.4155C66.4531 28.1238 66.2891 28.7202 65.9609 29.2045C65.6328 29.6889 65.1849 30.0561 64.6172 30.3061C64.0547 30.5509 63.4193 30.6733 62.7109 30.6733C62.0026 30.6733 61.3646 30.5509 60.7969 30.3061C60.2292 30.0561 59.7812 29.6889 59.4531 29.2045C59.125 28.7202 58.9609 28.1238 58.9609 27.4155C58.9609 26.9467 59.0521 26.5222 59.2344 26.142C59.4167 25.7566 59.6745 25.4259 60.0078 25.1498C60.3464 24.8686 60.7422 24.6524 61.1953 24.5014C61.6536 24.3504 62.1536 24.2748 62.6953 24.2748C63.4141 24.2748 64.0573 24.4077 64.625 24.6733C65.1927 24.9389 65.638 25.3061 65.9609 25.7748C66.2891 26.2436 66.4531 26.7905 66.4531 27.4155ZM64.5625 27.3217C64.5625 26.9415 64.4844 26.6082 64.3281 26.3217C64.1719 26.0353 63.9531 25.8139 63.6719 25.6577C63.3906 25.5014 63.0651 25.4233 62.6953 25.4233C62.3203 25.4233 61.9948 25.5014 61.7188 25.6577C61.4427 25.8139 61.2266 26.0353 61.0703 26.3217C60.9193 26.6082 60.8438 26.9415 60.8438 27.3217C60.8438 27.7071 60.9193 28.0405 61.0703 28.3217C61.2214 28.5978 61.4375 28.8087 61.7188 28.9545C62 29.1004 62.3307 29.1733 62.7109 29.1733C63.0911 29.1733 63.4193 29.1004 63.6953 28.9545C63.9714 28.8087 64.1849 28.5978 64.3359 28.3217C64.487 28.0405 64.5625 27.7071 64.5625 27.3217ZM66.1953 22.1342C66.1953 22.7019 66.0443 23.2071 65.7422 23.6498C65.4453 24.0925 65.0339 24.4415 64.5078 24.6967C63.9818 24.9467 63.3828 25.0717 62.7109 25.0717C62.0339 25.0717 61.4297 24.9467 60.8984 24.6967C60.3724 24.4415 59.9583 24.0925 59.6562 23.6498C59.3594 23.2071 59.2109 22.7019 59.2109 22.1342C59.2109 21.4571 59.3594 20.8868 59.6562 20.4233C59.9583 19.9545 60.3724 19.5978 60.8984 19.353C61.4245 19.1082 62.026 18.9858 62.7031 18.9858C63.3802 18.9858 63.9818 19.1082 64.5078 19.353C65.0339 19.5978 65.4453 19.9545 65.7422 20.4233C66.0443 20.8868 66.1953 21.4571 66.1953 22.1342ZM64.3125 22.1967C64.3125 21.8582 64.2448 21.5613 64.1094 21.3061C63.9792 21.0457 63.7943 20.8425 63.5547 20.6967C63.3151 20.5509 63.0312 20.478 62.7031 20.478C62.375 20.478 62.0911 20.5483 61.8516 20.6889C61.612 20.8295 61.4271 21.0274 61.2969 21.2827C61.1667 21.5379 61.1016 21.8425 61.1016 22.1967C61.1016 22.5457 61.1667 22.8504 61.2969 23.1108C61.4271 23.366 61.612 23.5665 61.8516 23.7123C62.0964 23.8582 62.3828 23.9311 62.7109 23.9311C63.0391 23.9311 63.3229 23.8582 63.5625 23.7123C63.8021 23.5665 63.987 23.366 64.1172 23.1108C64.2474 22.8504 64.3125 22.5457 64.3125 22.1967ZM75.9959 23.8764V25.7358C75.9959 26.6264 75.9074 27.3868 75.7303 28.017C75.5584 28.642 75.3084 29.1498 74.9803 29.5405C74.6522 29.9311 74.259 30.2175 73.8006 30.3998C73.3475 30.5821 72.8397 30.6733 72.2772 30.6733C71.8293 30.6733 71.4126 30.616 71.0272 30.5014C70.647 30.3868 70.3032 30.2071 69.9959 29.9623C69.6886 29.7175 69.4256 29.4024 69.2069 29.017C68.9933 28.6264 68.8267 28.1603 68.7069 27.6186C68.5923 27.0769 68.535 26.4493 68.535 25.7358V23.8764C68.535 22.9806 68.6235 22.2254 68.8006 21.6108C68.9777 20.991 69.2303 20.4884 69.5584 20.103C69.8866 19.7123 70.2772 19.4285 70.7303 19.2514C71.1886 19.0743 71.6991 18.9858 72.2616 18.9858C72.7147 18.9858 73.1314 19.0431 73.5116 19.1577C73.897 19.267 74.2407 19.4415 74.5428 19.6811C74.8501 19.9207 75.1105 20.2332 75.3241 20.6186C75.5428 20.9988 75.7095 21.4597 75.8241 22.0014C75.9386 22.5379 75.9959 23.1629 75.9959 23.8764ZM74.1131 26.0014V23.5952C74.1131 23.142 74.0871 22.7436 74.035 22.3998C73.9829 22.0509 73.9048 21.7566 73.8006 21.517C73.7017 21.2722 73.5767 21.0743 73.4256 20.9233C73.2746 20.767 73.1027 20.655 72.91 20.5873C72.7173 20.5144 72.5011 20.478 72.2616 20.478C71.9699 20.478 71.7095 20.5353 71.4803 20.6498C71.2511 20.7592 71.0584 20.9363 70.9022 21.1811C70.7459 21.4259 70.6261 21.7488 70.5428 22.1498C70.4647 22.5457 70.4256 23.0274 70.4256 23.5952V26.0014C70.4256 26.4597 70.4517 26.8634 70.5037 27.2123C70.5558 27.5613 70.634 27.8608 70.7381 28.1108C70.8423 28.3556 70.9673 28.5587 71.1131 28.7202C71.2642 28.8764 71.436 28.991 71.6287 29.0639C71.8267 29.1368 72.0428 29.1733 72.2772 29.1733C72.5741 29.1733 72.8371 29.116 73.0662 29.0014C73.2954 28.8868 73.4881 28.7045 73.6444 28.4545C73.8006 28.1993 73.9178 27.8686 73.9959 27.4623C74.0741 27.0561 74.1131 26.5691 74.1131 26.0014Z" fill="white"/>
<rect x="10" y="17.7281" width="13" height="13.5491" rx="6.5" fill="#5F5AA2"/>
<line x1="10" y1="24.2923" x2="56" y2="24.2923" stroke="#5F5AA2"/>
</svg>
