<!DOCTYPE svg PUBLIC "-//W3C//DTD SVG 1.1//EN" "http://www.w3.org/Graphics/SVG/1.1/DTD/svg11.dtd">
<!-- Uploaded to: SVG Repo, www.svgrepo.com, Transformed by: SVG Repo Mixer Tools -->
<svg fill="#DC1867" height="64px" width="64px" version="1.1" id="Layer_1" xmlns="http://www.w3.org/2000/svg" xmlns:xlink="http://www.w3.org/1999/xlink" viewBox="-36.71 -36.71 440.56 440.56" xml:space="preserve" data-darkreader-inline-fill="" style="--darkreader-inline-fill: #b01352; --darkreader-inline-stroke: #e9377f;" transform="rotate(90)matrix(-1, 0, 0, 1, 0, 0)" stroke="#DC1867" stroke-width="0.0036713600000000007" data-darkreader-inline-stroke="">
<g id="SVGRepo_bgCarrier" stroke-width="0"/>
<g id="SVGRepo_tracerCarrier" stroke-linecap="round" stroke-linejoin="round" stroke="#CCCCCC" stroke-width="0.734272" data-darkreader-inline-stroke="" style="--darkreader-inline-stroke: #c8c3bc;"/>
<g id="SVGRepo_iconCarrier"> <path d="M336.554,86.871c-11.975-18.584-27.145-34.707-44.706-47.731L330.801,0H217.436v113.91L270.4,60.691 c40.142,28.131,65.042,74.724,65.042,124.571c0,83.744-68.13,151.874-151.874,151.874S31.694,269.005,31.694,185.262 c0-58.641,32.781-111.009,85.551-136.669l-13.119-26.979C73.885,36.318,48.315,59.1,30.182,87.494 c-18.637,29.184-28.488,62.991-28.488,97.768c0,100.286,81.588,181.874,181.874,181.874s181.874-81.588,181.874-181.874 C365.442,150.223,355.453,116.201,336.554,86.871z"/> </g>
</svg>