<svg width="43" height="43" viewBox="0 0 43 43" fill="none" xmlns="http://www.w3.org/2000/svg">
<path d="M41.5953 35.5722C41.5953 35.5722 35.8388 30.5372 34.4618 29.1619C32.4409 27.1514 31.6324 26.1833 32.3458 24.5485C35.4663 18.1842 34.3869 10.2834 29.0939 4.99207C22.4394 -1.66402 11.6469 -1.66402 4.99155 4.99207C-1.66385 11.649 -1.66385 22.4381 4.99155 29.0958C10.2814 34.3856 18.1846 35.465 24.5466 32.3453C26.1814 31.6327 27.1519 32.4412 29.1616 34.4629C30.5376 35.839 35.5704 41.5963 35.5704 41.5963C38.1814 44.2058 40.1903 42.5999 41.3962 41.3956C42.5997 40.1904 44.2064 38.1824 41.5953 35.5722ZM24.021 24.0205C20.1661 27.8729 13.9186 27.8729 10.0653 24.0205C6.21202 20.168 6.21202 13.919 10.0653 10.0666C13.9186 6.21413 20.1661 6.21413 24.021 10.0666C27.8743 13.919 27.8743 20.168 24.021 24.0205Z" fill="#6077E0"/>
</svg>
